<?xml version="1.0" standalone="no"?>
<!DOCTYPE svg PUBLIC "-//W3C//DTD SVG 1.1//EN" "http://www.w3.org/Graphics/SVG/1.1/DTD/svg11.dtd" >
<svg>
<metadata>
Created by FontForge 20090622 at Sat Oct 15 21:39:24 2016
 By deploy user
Copyright (c) 2010, 2011, Santiago Orozco &#60;hi@typemade.mx&#62;, with Reserved Font Name "Antic"
</metadata>
<defs>
<font id="Antic-Regular" horiz-adv-x="500" >
  <font-face 
    font-family="Antic"
    font-weight="400"
    font-stretch="normal"
    units-per-em="1000"
    panose-1="0 0 0 0 0 0 0 0 0 0"
    ascent="800"
    descent="-200"
    x-height="500"
    cap-height="700"
    bbox="-51 -251 973 940"
    underline-thickness="50"
    underline-position="-50"
    unicode-range="U+0020-U+2122"
  />
<missing-glyph horiz-adv-x="299" 
 />
    <glyph glyph-name=".notdef" horiz-adv-x="299" 
 />
    <glyph glyph-name=".null" horiz-adv-x="0" 
 />
    <glyph glyph-name="nonmarkingreturn" horiz-adv-x="299" 
 />
    <glyph glyph-name="space" unicode=" " horiz-adv-x="299" 
 />
    <glyph glyph-name="space" unicode="&#xa0;" horiz-adv-x="299" 
 />
    <glyph glyph-name="exclam" unicode="!" horiz-adv-x="282" 
d="M172 129h-60v566l60 5v-571zM162 48q-24 0 -38 -16t-14 -35t16 -19q19 0 34 15t15 35t-13 20z" />
    <glyph glyph-name="quotedbl" unicode="&#x22;" horiz-adv-x="358" 
d="M128 719q-3 -15 -4.5 -34.5t-3.5 -43t-2 -38.5l-38 -3q0 1 -2.5 33.5t-3.5 84.5zM248 719q-3 -15 -4.5 -34.5t-3.5 -43t-2 -38.5l-38 -3q0 1 -2.5 33.5t-3.5 84.5z" />
    <glyph glyph-name="numbersign" unicode="#" horiz-adv-x="600" 
d="M69 516h122l29 163h60l-29 -163h142l29 163h60l-29 -163h107l-6 -58h-111l-30 -171h107l-6 -58h-111l-32 -185h-60l32 185h-142l-32 -185h-60l32 185h-118l6 58h122l30 171h-118zM211 287h142l30 171h-142z" />
    <glyph glyph-name="dollar" unicode="$" horiz-adv-x="583" 
d="M440 531q-96 16 -134 16h-5v-213q88 -23 121.5 -46t50 -51.5t16.5 -70.5q0 -78 -52.5 -120t-135.5 -49v-97h-35v96q-144 8 -201 56l21 45q40 -34 130 -45q26 -3 48 -3h2v239q-89 24 -119.5 43.5t-46.5 44.5t-16 64q0 69 49 111t133 48v101h35v-100q56 -2 151 -18z
M419 116q10 19 10 46q0 47 -39 76q-25 20 -89 40v-227q90 10 118 65zM149 446q0 -58 71 -86q22 -9 46 -16v200q-57 -7 -87 -32t-30 -66z" />
    <glyph glyph-name="percent" unicode="%" horiz-adv-x="653" 
d="M558 500l-378 -500h-60l378 500h60zM90 342q-10 23 -10 52q0 54 34.5 90t85.5 36q120 0 120 -120q0 -51 -36 -85.5t-84 -34.5q-85 0 -110 62zM143 458q-23 -24 -23 -62t23 -58t56.5 -20t57 23.5t23.5 62t-23.5 58.5t-57 20t-56.5 -24zM380 57q-10 23 -10 53q0 53 34.5 89
t85.5 36q120 0 120 -120q0 -51 -36 -85.5t-84 -34.5q-85 0 -110 62zM433 173q-23 -24 -23 -62t23 -58t56.5 -20t57 23.5t23.5 62t-23.5 58.5t-57 20t-56.5 -24z" />
    <glyph glyph-name="ampersand" unicode="&#x26;" horiz-adv-x="938" 
d="M255 461q-56 84 -56 138.5t39 96.5q50 53 138 53q68 0 126 -33q23 -13 37.5 -25.5t20.5 -16.5l-36 -40q-40 35 -98 53q-23 7 -52.5 7t-52.5 -12q-57 -28 -57 -90q0 -115 340 -425q55 69 82 168l57 -13q-13 -63 -53 -134q-17 -30 -42 -60q85 -75 129 -109l-38 -46
q-47 36 -133 113q-107 -90 -268 -90q-127 0 -197 56.5t-70 176.5q0 147 109 206q34 18 75 26zM136 231q0 -180 217 -180q121 0 209 74q-170 155 -272 286q-73 -8 -113.5 -53.5t-40.5 -126.5z" />
    <glyph glyph-name="quotesingle" unicode="'" horiz-adv-x="200" 
d="M64 573l1 57v46q0 24 -1 39l54 3q0 -65 -5 -130l-1 -13z" />
    <glyph glyph-name="parenleft" unicode="(" horiz-adv-x="346" 
d="M267 721q-56 -31 -97 -141.5t-41 -309.5q0 -300 99 -416q20 -22 39 -32l-32 -22q-2 1 -16 7t-33 23q-50 46 -80 134q-42 121 -42 306q0 269 85 402q38 58 86 78z" />
    <glyph glyph-name="parenright" unicode=")" horiz-adv-x="400" 
d="M96 750q69 -29 120 -146t51 -318q0 -343 -122 -456q-24 -22 -49 -30l-32 22q35 18 72 80q66 116 66 365t-69 376q-31 56 -69 78z" />
    <glyph glyph-name="asterisk" unicode="*" horiz-adv-x="556" 
d="M274 736l48 -1q0 -38 -8 -122l113 43l16 -47q-36 -12 -118 -31l75 -95l-39 -29q-22 29 -39.5 58l-28.5 47l-68 -102l-39 28q21 28 42.5 53.5l35.5 42.5l-116 32l14 47q49 -17 116 -47q0 79 -4 123z" />
    <glyph glyph-name="plus" unicode="+" horiz-adv-x="799" 
d="M366 290v210h60v-210h220v-58h-220v-232h-60v232h-220v58h220z" />
    <glyph glyph-name="comma" unicode="," horiz-adv-x="110" 
d="M33 65l54 -1q0 -54 -24 -150l-4 -17l-46 2q0 1 10 60.5t10 80.5v25z" />
    <glyph glyph-name="hyphen" unicode="-" horiz-adv-x="600" 
d="M448 290v-58h-302v58h302z" />
    <glyph glyph-name="period" unicode="." horiz-adv-x="143" 
d="M41.5 2q-7.5 10 -7.5 28t9.5 29t28.5 11q32 0 32 -41q0 -17 -10.5 -27t-27.5 -10t-24.5 10z" />
    <glyph glyph-name="slash" unicode="/" horiz-adv-x="600" 
d="M490 749l-318 -949h-60l318 949h60z" />
    <glyph glyph-name="zero" unicode="0" horiz-adv-x="700" 
d="M213 118q52 -67 137 -67q82 0 139.5 78.5t57.5 217t-56 212.5q-82 65 -141 74q-82 0 -139.5 -79t-57.5 -218.5t60 -217.5zM162 595q77 93 188 93q115 0 190 -87.5t75 -253t-77 -258.5t-188 -93q-116 0 -186 80q-79 91 -79 258.5t77 260.5z" />
    <glyph glyph-name="one" unicode="1" horiz-adv-x="488" 
d="M77.5 601q-0.5 12 -0.5 25l160 36h63v-662h-63v613l-159 -36q0 12 -0.5 24z" />
    <glyph glyph-name="two" unicode="2" horiz-adv-x="572" 
d="M292 610q-65 0 -157 -44l-25 47q27 15 79.5 34t97.5 19q90 0 139 -38q61 -46 61 -141q0 -63 -29.5 -120t-74.5 -110.5t-100 -103.5l-106 -98h326l6 -55h-408l-11 55l135 131t104.5 110.5t67 98t23.5 94.5q0 76 -62 108q-25 13 -66 13z" />
    <glyph glyph-name="three" unicode="3" horiz-adv-x="560" 
d="M206 52q207 0 207 146q0 117 -147 124q-40 2 -76 2v45h41q21 0 42 -1q39 4 69.5 25.5t48.5 49t18 71.5q0 63 -57 87q-22 9 -55 9q-70 0 -162 -44l-17 50q45 25 95.5 37.5t87.5 12.5q77 0 126.5 -37t49.5 -107q0 -90 -77 -141q-21 -14 -42 -23q123 -28 123 -157
q0 -154 -159 -192q-49 -12 -113 -12t-122 16l16 52q37 -13 103 -13z" />
    <glyph glyph-name="four" unicode="4" horiz-adv-x="601" 
d="M402 0v140h-300l-17 55l317 467h68v-467h46l1 -55h-47v-140h-68zM402 195v367l-250 -367h250z" />
    <glyph glyph-name="five" unicode="5" horiz-adv-x="475" 
d="M146 52q207 0 207 146q0 116 -154 124q-41 2 -79 2h-11l20 338h286v-55h-223l-14 -238q110 0 165 -27q78 -40 78 -141q0 -154 -159 -192q-49 -12 -113 -12t-122 16l16 52q37 -13 103 -13z" />
    <glyph glyph-name="six" unicode="6" horiz-adv-x="601" 
d="M464 614q-6 -4 -35.5 -20.5t-68.5 -45.5q-103 -73 -160 -159q90 -3 122 -7q73 -11 116 -56t43 -131.5t-60 -142.5t-157 -56q-134 0 -178 102q-16 36 -16 98t25 124t63 113q91 125 279 229zM170 334q-32 -70 -32 -144.5t39 -106.5t81 -32q75 0 115 42t40 102.5t-29.5 92.5
t-74.5 39q-27 5 -139 7z" />
    <glyph glyph-name="seven" unicode="7" horiz-adv-x="564" 
d="M90 662h371l14 -55l-252 -607h-66l252 607h-319v55z" />
    <glyph glyph-name="eight" unicode="8" horiz-adv-x="613" 
d="M199 382q-75 41 -75 130q0 154 184 154q101 0 143.5 -41t42.5 -107q0 -90 -77 -151q115 -48 115 -194q0 -58 -36 -105q-57 -72 -188 -72t-186 72q-36 47 -36 97q0 82 28.5 128.5t84.5 88.5zM239 365q-88 -70 -88 -192q0 -77 71 -108q36 -16 89 -16q92 0 132 52
q24 31 24 80.5t-21.5 82.5t-55 51t-74 27.5t-77.5 22.5zM315 613q-126 0 -126 -97q0 -89 117 -116q33 -7 67 -17q36 36 44 88q9 25 9 44.5t-1 29.5q-9 28 -26 41q-36 27 -84 27z" />
    <glyph glyph-name="nine" unicode="9" horiz-adv-x="601" 
d="M86 44q6 4 35.5 20t68.5 44q104 75 160 161q-82 0 -117 6q-163 27 -163 185q0 90 60 146t157 56q134 0 178 -102q16 -36 16 -98t-25 -124t-62 -113q-63 -84 -170 -161q-69 -50 -110 -68zM381 324q32 68 32 145q0 74 -44 109q-35 29 -77 29q-74 0 -114 -42t-40 -103
t29.5 -93t74.5 -38q32 -7 139 -7z" />
    <glyph glyph-name="colon" unicode=":" horiz-adv-x="250" 
d="M86.5 2q-7.5 10 -7.5 28t9.5 29t27.5 11q33 0 33 -41q0 -17 -10.5 -27t-27.5 -10t-24.5 10zM86.5 405q-7.5 10 -7.5 28t9.5 29t27.5 11q33 0 33 -41q0 -17 -10.5 -27t-27.5 -10t-24.5 10z" />
    <glyph glyph-name="semicolon" unicode=";" horiz-adv-x="232" 
d="M127 64q0 -54 -12 -109.5t-12 -56.5h-35q0 1 12 56.5t12 109.5h35zM86.5 405q-7.5 10 -7.5 28t9.5 29t27.5 11q33 0 33 -41q0 -17 -10.5 -27t-27.5 -10t-24.5 10z" />
    <glyph glyph-name="less" unicode="&#x3c;" horiz-adv-x="569" 
d="M181 299l274 -146l-3 -53l-352 200l352 200l3 -52z" />
    <glyph glyph-name="equal" unicode="=" horiz-adv-x="739" 
d="M600 383v-58h-454v58h454zM600 161v-58h-454v58h454z" />
    <glyph glyph-name="greater" unicode="&#x3e;" horiz-adv-x="569" 
d="M100 153l136.5 73.5l136.5 72.5l-273 149l3 52l352 -200l-352 -200z" />
    <glyph glyph-name="question" unicode="?" 
d="M58 638q80 62 179 62q78 0 127.5 -42t49.5 -106q0 -44 -30 -84t-102 -113q-97 -95 -97 -227h-45q0 149 76 228.5t104.5 117t28.5 78.5t-31 68.5t-85 27.5q-80 0 -152 -49zM165 -34q-38 0 -38 40q0 20 10.5 31.5t30.5 11.5q35 0 35 -43q0 -18 -10.5 -29t-27.5 -11z" />
    <glyph glyph-name="at" unicode="@" horiz-adv-x="1070" 
d="M655 336q0 109 -114 109q-81 0 -175 -47l-18 48q7 3 26 12q94 43 166 45q65 0 100.5 -16.5t57.5 -46t22 -82.5v-311q1 -18 13.5 -24.5t22 -6.5t23 2.5t37.5 18.5t44 45q48 69 48 176q0 202 -112 307q-99 92 -261 92q-83 0 -153.5 -33t-122 -90t-80.5 -134.5t-29 -174.5
t29.5 -171.5t80.5 -121.5q100 -89 270 -89q78 0 145 32l29 -50q-71 -40 -194 -40q-77 0 -156.5 25.5t-139.5 79.5q-129 118 -129 348q0 105 35 192.5t95.5 150.5t143 98.5t175.5 35.5q193 0 310 -109q129 -120 129 -341q0 -149 -79 -234q-65 -70 -149 -70q-36 0 -61.5 20.5
t-28.5 56.5q-96 -42 -175 -42q-132 0 -142 105v19.5t7 33t28.5 41t71 34t210.5 23.5v84zM498 42q73 0 157 34v143q-157 -23 -194 -34q-63 -21 -63 -73q0 -40 36 -58q23 -12 64 -12z" />
    <glyph glyph-name="A" unicode="A" horiz-adv-x="672" 
d="M482 185h-308l-64 -185h-65l253 700h61l262 -700h-73zM191 235h273l-139 389z" />
    <glyph glyph-name="B" unicode="B" horiz-adv-x="527" 
d="M371 402q111 -41 111 -185q0 -73 -16.5 -113t-47.5 -63q-57 -41 -178 -41h-165v700h150q158 0 200 -80q15 -28 15 -68t-20.5 -82t-48.5 -68zM143 363v-308h92q93 0 131 25q48 31 48 123q0 125 -88 151q-29 9 -66 9h-117zM323 414q49 64 49 126t-39 83.5t-113 21.5h-77
v-227h122q30 0 58 -4z" />
    <glyph glyph-name="C" unicode="C" horiz-adv-x="592" 
d="M492 626q-51 20 -107 20q-113 0 -182.5 -83t-69.5 -243t73 -224q50 -45 139 -45q57 0 114.5 13t78.5 25l14 -49q-44 -29 -154 -40q-32 -4 -67.5 -4t-83.5 11.5t-89 46.5q-93 79 -93 263t87.5 284.5t227.5 100.5q78 0 134 -31q21 -11 33 -24v-145l-50 -3z" />
    <glyph glyph-name="D" unicode="D" horiz-adv-x="623" 
d="M80 700h180q210 0 274 -176q24 -64 24 -168.5t-23 -176t-65 -111.5t-101.5 -54t-133.5 -14h-155v700zM148 645v-590h82q52 0 100 9q160 28 160 297q0 151 -70 223q-61 61 -165 61h-107z" />
    <glyph glyph-name="E" unicode="E" horiz-adv-x="504" 
d="M439 640h-291v-263h270l-5 -60h-265v-257h316l-5 -60h-379v700h364z" />
    <glyph glyph-name="F" unicode="F" horiz-adv-x="484" 
d="M439 640h-291v-263h270l-5 -60h-265v-317h-68v700h364z" />
    <glyph glyph-name="G" unicode="G" horiz-adv-x="629" 
d="M528 602q-26 26 -94 39q-25 5 -65 5t-84.5 -19t-78.5 -59q-73 -88 -73 -248t73 -224q50 -45 132.5 -45t158.5 21l5 238h55v-270q-44 -28 -159 -40q-32 -4 -67.5 -4t-83.5 11.5t-89 46.5q-93 79 -93 263t88 284.5t227 100.5l32 -2q63 -6 96.5 -23t45.5 -30z" />
    <glyph glyph-name="H" unicode="H" horiz-adv-x="616" 
d="M75 0v700h63v-323h340v323h63v-700h-63v317h-340v-317h-63z" />
    <glyph glyph-name="I" unicode="I" horiz-adv-x="348" 
d="M258 0h-188v48l60 7v589l-55 7v49h178v-49l-55 -7v-589l60 -7v-48z" />
    <glyph glyph-name="J" unicode="J" horiz-adv-x="226" 
d="M-32 -209q69 65 98 146q11 31 11 63v700h68v-700v-6q0 -110 -102 -204l-42 -38z" />
    <glyph glyph-name="K" unicode="K" horiz-adv-x="555" 
d="M80 0v700h68v-334l241 334h78l-245 -329l293 -371h-78l-289 366v-366h-68z" />
    <glyph glyph-name="L" unicode="L" horiz-adv-x="509" 
d="M459 0h-379v700h68v-640h316z" />
    <glyph glyph-name="M" unicode="M" horiz-adv-x="802" 
d="M72 0v700h68l257 -512l257 512h68v-700h-63v584l-228 -453h-68l-228 453v-584h-63z" />
    <glyph glyph-name="N" unicode="N" horiz-adv-x="675" 
d="M529 0l-399 610l5 -610h-63v700h73l398 -610l-4 610h63v-700h-73z" />
    <glyph glyph-name="O" unicode="O" horiz-adv-x="720" 
d="M360 704q295 0 295 -356q0 -163 -84 -257.5t-211 -94.5q-135 0 -209 74q-86 88 -86 265t84.5 273t210.5 96zM200 118q55 -62 160 -62q99 0 163 78.5t64 225.5t-67 221q-56 63 -160 63q-98 0 -162.5 -79t-64.5 -226.5t67 -220.5z" />
    <glyph glyph-name="P" unicode="P" horiz-adv-x="532" 
d="M80 0v700h145q123 0 178 -39q64 -45 64 -154q0 -182 -140 -222q-45 -13 -102 -13h-77v-272h-68zM148 645v-318h72q90 0 134.5 39.5t44.5 129t-44.5 119.5t-134.5 30h-72z" />
    <glyph glyph-name="Q" unicode="Q" horiz-adv-x="720" 
d="M360 704q295 0 295 -356q0 -145 -68.5 -237t-175.5 -111q28 -99 159 -194l-59 -6q-81 56 -133 134q-20 30 -29 62q-202 3 -262 186q-22 67 -22 158q0 172 84.5 268t210.5 96zM200 118q55 -62 160 -62q99 0 163 78.5t64 225.5t-67 221q-56 63 -160 63q-98 0 -162.5 -79
t-64.5 -226.5t67 -220.5z" />
    <glyph glyph-name="R" unicode="R" horiz-adv-x="564" 
d="M467 512q0 -144 -99 -193l151 -319h-73l-142 298q-36 -6 -79 -6h-77v-292h-68v700h145q122 0 178 -38q64 -43 64 -150zM148 645v-298h72q89 0 134 36t45 125q0 114 -104 132q-33 5 -75 5h-72z" />
    <glyph glyph-name="S" unicode="S" horiz-adv-x="557" 
d="M466 682l-12 -57q-77 17 -131 17q-194 0 -194 -118q0 -45 28.5 -69t72 -39.5t93.5 -28t93 -33.5q101 -50 101 -153t-77 -156q-66 -46 -174 -46q-134 0 -226 61l26 51q27 -19 77 -35.5t97 -16.5q92 0 145 30q64 37 64 106q0 51 -28.5 79.5t-72 46t-93.5 30t-93 31.5
q-101 44 -101 131t60 138t170 51q85 0 175 -20z" />
    <glyph glyph-name="T" unicode="T" horiz-adv-x="548" 
d="M243 0v640h-198l5 60h453l-5 -60h-192v-640h-63z" />
    <glyph glyph-name="U" unicode="U" horiz-adv-x="657" 
d="M585 700v-400q0 -156 -73 -235q-65 -69 -178.5 -69t-173.5 54q-80 73 -80 250v400h68v-399q0 -145 60 -205q45 -45 130 -45q127 0 169 133q15 47 15 117v399h63z" />
    <glyph glyph-name="V" unicode="V" horiz-adv-x="664" 
d="M340 76l211 624h65l-248 -700h-66l-257 700h68z" />
    <glyph glyph-name="W" unicode="W" horiz-adv-x="923" 
d="M637 98l166 602h65l-205 -700h-61l-151 596l-165 -596h-62l-179 700h63l152 -599l165 599h56z" />
    <glyph glyph-name="X" unicode="X" horiz-adv-x="613" 
d="M297 322l-184 -322h-70l223 373l-206 327h78l172 -286l164 286h70l-203 -337l229 -363h-78z" />
    <glyph glyph-name="Y" unicode="Y" horiz-adv-x="656" 
d="M334 291l207 409h70l-245 -465v-235h-63v236l-258 464h73z" />
    <glyph glyph-name="Z" unicode="Z" horiz-adv-x="592" 
d="M61 700h440l10 -55l-394 -590h427l8 -55h-502l-10 55l393 590h-371z" />
    <glyph glyph-name="bracketleft" unicode="[" horiz-adv-x="430" 
d="M138 -200h-31v950h65v-1h128v-58h-128v-834h128v-58h-162v1z" />
    <glyph glyph-name="backslash" unicode="\" horiz-adv-x="600" 
d="M425 -200l-318 949h70l318 -949h-70z" />
    <glyph glyph-name="bracketright" unicode="]" horiz-adv-x="430" 
d="M269 -201h-162v58h128v834h-128v58h128v1h65v-950h-31v-1z" />
    <glyph glyph-name="asciicircum" unicode="^" horiz-adv-x="560" 
d="M374 300q-16 22 -55 68.5t-49 60.5l-60.5 -75t-41.5 -54l-32 5l73.5 86t60.5 72q8 -11 61.5 -71t74.5 -87z" />
    <glyph glyph-name="underscore" unicode="_" 
d="M433 58v-58h-354v58h354z" />
    <glyph glyph-name="grave" unicode="`" horiz-adv-x="299" 
d="M189 595l-118 148l60 7l104 -147z" />
    <glyph glyph-name="a" unicode="a" horiz-adv-x="462" 
d="M51 446q109 54 191 57q65 0 100.5 -16.5t57.5 -46t22 -82.5v-358h-65v38q-137 -42 -176 -42h-3q-90 0 -123 55q-12 20 -13.5 39t-1.5 32q0 36 28 64.5t67 38.5q66 17 222 30v81q0 109 -114 109q-80 0 -174 -47zM101 114q0 -72 99 -72q79 0 157 34v143q-156 -22 -193 -34
q-63 -20 -63 -71z" />
    <glyph glyph-name="b" unicode="b" horiz-adv-x="508" 
d="M125 460q59 49 134 49q128 0 179 -113q20 -46 20 -119q0 -135 -71 -206t-184 -71q-66 0 -100.5 9t-42.5 14v722l65 5v-290zM125 425v-369q29 -7 63 -7q100 0 152.5 58t52.5 163t-53 150q-37 31 -96 31t-119 -26z" />
    <glyph glyph-name="c" unicode="c" horiz-adv-x="489" 
d="M391 433q-41 13 -84 13q-87 0 -139.5 -56t-52.5 -158q0 -178 165 -178q66 0 136 22q14 4 17 6l16 -54q-35 -21 -127 -30q-26 -2 -55 -2q-85 0 -140 42q-77 58 -77 191t71.5 204.5t184.5 71.5q36 0 76.5 -9.5t62.5 -29.5v-131l-49 -7z" />
    <glyph glyph-name="d" unicode="d" horiz-adv-x="535" 
d="M318 505q59 0 112 -35v275l65 5v-727h-5q-31 -13 -103.5 -20t-100.5 -7q-84 0 -139 42q-77 58 -77 191t71.5 204.5t176.5 71.5zM430 427q-50 19 -98 19q-92 0 -144.5 -56t-52.5 -159t57 -145q41 -32 103.5 -32t134.5 10v363z" />
    <glyph glyph-name="e" unicode="e" horiz-adv-x="516" 
d="M120 230q0 -176 168 -176q71 0 130 19q15 5 21 8l15 -53q-35 -21 -127 -30q-26 -2 -55 -2q-84 0 -140 42q-77 57 -77 190t69.5 204.5t168.5 71.5t149 -64q38 -51 38 -135q0 -20 -2 -42h-357q-1 -8 -1 -17v-16zM297 442q-62 0 -106 -37.5t-61 -96.5h291q-5 111 -86 129
q-18 5 -38 5z" />
    <glyph glyph-name="f" unicode="f" horiz-adv-x="309" 
d="M96 618q0 136 150 136q39 0 69 -8l-10 -56q-34 5 -57.5 5t-42.5 -8q-44 -20 -44 -92v-95h124v-58h-124v-442h-65v442h-56l9 58h47v118z" />
    <glyph glyph-name="g" unicode="g" horiz-adv-x="571" 
d="M142 193q-74 37 -74 139q0 84 58 128t148 44q24 0 59 -5l188 5l-2 -38h-109q55 -41 55 -123.5t-55 -127t-142 -44.5q-56 0 -93 10q-19 -18 -19 -42q0 -34 37.5 -49t88.5 -22q113 -15 163 -42q72 -40 72 -123t-79 -123q-60 -30 -145 -30t-131 13q-121 35 -121 130t107 161
q-42 31 -42 72t36 67zM452 -96q0 65 -86 90q-24 7 -86 17t-97 24q-77 -64 -77 -124q0 -26 8 -43t28 -30q44 -30 134 -30q118 0 160 50q16 19 16 46zM397 345q0 106 -126 106q-60 0 -99 -27.5t-39 -84t28 -86t94.5 -29.5t104 32t37.5 89z" />
    <glyph glyph-name="h" unicode="h" horiz-adv-x="497" 
d="M135 443q79 57 152 60q62 0 95 -15t54 -42.5t21 -77.5v-368h-65v351q0 37 -16 57q-32 37 -98 37q-65 -3 -143 -42v-403h-65v745l65 5v-307z" />
    <glyph glyph-name="i" unicode="i" horiz-adv-x="218" 
d="M146 505v-505h-65v500zM80.5 647q-10.5 13 -10.5 33t11.5 32.5t31.5 12.5t32.5 -12.5t12.5 -34.5t-13.5 -33t-33.5 -11t-30.5 13z" />
    <glyph glyph-name="j" unicode="j" horiz-adv-x="229" 
d="M-16 -209q69 64 98 147q11 31 11 62v500l65 5v-505v-6q0 -80 -54 -152q-23 -30 -48 -52.5l-42 -37.5zM92 647q-11 13 -11 33t12 32.5t32 12.5t32 -12.5t12 -34.5t-13 -33t-33 -11t-31 13z" />
    <glyph glyph-name="k" unicode="k" horiz-adv-x="474" 
d="M135 0h-65v745l65 5v-750zM336 500h78l-214 -234l234 -266l-73 -5l-226 271z" />
    <glyph glyph-name="l" unicode="l" horiz-adv-x="175" 
d="M70 0v745l65 5v-750h-65z" />
    <glyph glyph-name="m" unicode="m" horiz-adv-x="788" 
d="M246 445q-56 -3 -121 -37v-408h-65v500l65 5v-56q67 51 130 54q106 0 146 -53q76 50 147 53q61 0 94 -15t54.5 -42.5t21.5 -77.5v-368h-65v351q0 37 -17 57q-31 37 -88 37q-60 0 -128 -36q5 -20 5 -41v-368h-65v351q0 37 -16 57q-32 37 -98 37z" />
    <glyph glyph-name="n" unicode="n" horiz-adv-x="507" 
d="M125 445q75 55 142 58q61 0 94 -15t54.5 -42.5t21.5 -77.5v-368h-65v351q0 37 -16 57q-32 37 -98 37q-63 -3 -133 -41v-404h-65v500l65 5v-60z" />
    <glyph glyph-name="o" unicode="o" horiz-adv-x="575" 
d="M68 128q-18 48 -18 112q0 123 69 193.5t173 70.5q163 0 214 -132q19 -48 19 -112q0 -123 -69 -193.5t-173 -70.5q-163 0 -215 132zM162.5 104.5q47.5 -50.5 122.5 -50.5t125 53.5t50 145.5t-47 142.5t-122.5 50.5t-125.5 -53.5t-50 -145.5t47.5 -142.5z" />
    <glyph glyph-name="p" unicode="p" horiz-adv-x="518" 
d="M322.5 20.5q-40.5 -16.5 -69.5 -18.5t-57 -2t-61 5v-250l-65 -5v724l67.5 21t97 14t89 -8.5t69.5 -32.5q75 -58 75 -192t-72 -206q-33 -33 -73.5 -49.5zM135 56q30 -7 64 -7q98 0 151 58t53 163t-54 150q-38 31 -97.5 31t-116.5 -17v-378z" />
    <glyph glyph-name="q" unicode="q" horiz-adv-x="545" 
d="M420 10q-79 -14 -126 -14q-234 0 -234 234q0 132 71.5 203.5t187.5 71.5q72 0 147 -23q18 -5 19 -6v-722l-65 -5v261zM420 429q-80 16 -104 17q-86 0 -138.5 -56t-52.5 -159t57 -145q41 -32 103.5 -32t134.5 10v365z" />
    <glyph glyph-name="r" unicode="r" horiz-adv-x="347" 
d="M321 430q-16 9 -34 9t-20 -1q-38 0 -76.5 -27.5t-65.5 -61.5v-349h-65v500l65 5v-112q37 47 63 66q48 36 92 38q6 1 22 1t45 -8z" />
    <glyph glyph-name="s" unicode="s" horiz-adv-x="427" 
d="M344 434q-36 12 -98 12t-96 -22t-34 -54.5t20 -47.5t50 -25.5t65.5 -20.5t65.5 -26q70 -36 70 -107t-48.5 -109t-141.5 -38q-47 0 -90.5 9.5t-66.5 26.5l22 53q23 -20 93 -29q22 -3 45 -3q52 0 87 21.5t35 65.5q0 30 -20 47t-50 28.5t-65.5 20.5t-65.5 23.5t-50 38
t-20 63.5q0 65 50 104t134 39q21 0 43 -2.5l40 -4.5l42 -7z" />
    <glyph glyph-name="t" unicode="t" horiz-adv-x="332" 
d="M289 18q-18 -18 -65 -18q-66 0 -89 34q-39 37 -39 100v308h-56l9 58h47v99l65 6v-105h116v-58h-116v-324q0 -58 60 -58q26 0 56 12z" />
    <glyph glyph-name="u" unicode="u" horiz-adv-x="517" 
d="M188 64q22 -8 70 -8t124 39v405l65 5v-505h-65v54q-74 -57 -151 -57q-96 0 -139 57q-22 28 -22 78v368l65 5v-356q0 -62 53 -85z" />
    <glyph glyph-name="v" unicode="v" horiz-adv-x="528" 
d="M40 500l73 5l145 -428l157 423l72 5l-202 -505h-60z" />
    <glyph glyph-name="w" unicode="w" horiz-adv-x="809" 
d="M399 402l-134 -402h-60l-165 500l73 5l127 -423l130 418l63 5l112 -424l147 419l77 5l-192 -505h-60z" />
    <glyph glyph-name="x" unicode="x" horiz-adv-x="492" 
d="M234 208l-133 -208h-75l173 263l-152 237l77 5l122 -195l119 190h75l-159 -246l165 -254l-78 -5z" />
    <glyph glyph-name="y" unicode="y" horiz-adv-x="566" 
d="M40 500l73 5l149 -458l192 453h70l-332 -750h-61l110 250h-23z" />
    <glyph glyph-name="z" unicode="z" 
d="M65 500h365l9 -58l-312 -384h325l8 -58h-411l-9 58l316 384h-290z" />
    <glyph glyph-name="braceleft" unicode="{" horiz-adv-x="453" 
d="M177 96q0 119 -109 125h-7v57q116 0 116 100v235q0 135 163 135h13v-57h-14q-36 0 -63 -18q-39 -26 -39 -82v-210q0 -93 -57 -132q57 -39 57 -131v-210q0 -57 39 -83q25 -17 68 -17h9v-57q-9 -1 -23 -1q-54 0 -92 20q-61 32 -61 116v210z" />
    <glyph glyph-name="bar" unicode="|" horiz-adv-x="284" 
d="M172 749v-949h-60v949h60z" />
    <glyph glyph-name="braceright" unicode="}" horiz-adv-x="453" 
d="M237 378q0 -100 116 -100v-57h-7q-49 -3 -69 -21q-40 -36 -40 -104v-210q0 -84 -61 -116q-38 -20 -95 -20q-11 0 -20 1v57h14q38 0 63 17q39 26 39 83v210q0 92 57 131q-57 39 -57 132v210q0 56 -39 82q-27 18 -69 18h-8v57h13q163 0 163 -135v-235z" />
    <glyph glyph-name="asciitilde" unicode="~" horiz-adv-x="588" 
d="M216 344q-53 0 -60 -36l-34 7q14 65 89 65q37 0 103 -16.5t86 -16.5t30 3q16 5 23 36l35 -7q-14 -63 -58 -69q-8 -1 -24 -1t-84 17.5t-106 17.5z" />
    <glyph glyph-name="exclamdown" unicode="&#xa1;" horiz-adv-x="282" 
d="M170 371h-60v-566l60 -5v571zM160 452q-24 0 -38 16t-14 35t16 19q19 0 34 -15t15 -35t-13 -20z" />
    <glyph glyph-name="cent" unicode="&#xa2;" horiz-adv-x="489" 
d="M391 433q-4 1 -25 7t-61 6h-11v-392q63 3 122 22q14 4 17 6l16 -54q-20 -12 -71 -21.5t-84 -9.5v-97h-30v96q-85 3 -137 42q-77 58 -77 191t72 205q58 58 142 68v98h30v-95h25t62.5 -9.5t63.5 -29.5v-121l-49 -7zM171 86q24 -19 48.5 -24.5t44.5 -7.5v388q-18 -4 -44 -14
t-52 -37q-53 -57 -53 -159.5t56 -145.5z" />
    <glyph glyph-name="sterling" unicode="&#xa3;" horiz-adv-x="502" 
d="M207 144q0 -70 -41 -91h260l5 -53h-346l-7 53h9q33 3 49 37q11 22 11 55.5t-11.5 70t-18.5 64.5h-66v33h58q-9 61 -9 81.5t1 41.5q3 65 33 106q40 55 119.5 55t125.5 -40l-23 -42q-32 29 -90 29t-82 -35t-24 -113q0 -41 6 -83h167v-33h-159l7 -21l15 -46t11 -69z" />
    <glyph glyph-name="currency" unicode="&#xa4;" horiz-adv-x="600" 
d="M134 324q-34 49 -34 120.5t38 127.5l-48 48l41 41l48 -48q57 37 127 37t119 -35l48 48l42 -42l-49 -49q34 -48 34 -118.5t-38 -123.5l53 -53l-41 -41l-53 52q-54 -38 -125.5 -38t-118.5 33l-46 -46l-42 42zM200 346q40 -38 100 -38q59 0 99.5 42t40.5 104t-40 100
t-100 38q-59 0 -99.5 -42t-40.5 -104t40 -100z" />
    <glyph glyph-name="brokenbar" unicode="&#xa6;" horiz-adv-x="284" 
d="M172 200v-400h-60v400h60zM112 400v349h60v-349h-60z" />
    <glyph glyph-name="section" unicode="&#xa7;" 
d="M90 600h65q1 -49 20 -75.5t47.5 -43.5t61 -30t60.5 -34q66 -48 66 -155h-65q0 50 -19 78.5t-47 46t-61.5 31t-61.5 34t-47 54.5t-19 94zM90 361h65q1 -49 20 -76t47.5 -44t61 -30t60.5 -35q66 -49 66 -153h-65q0 50 -19 78.5t-47 46t-61.5 30.5t-61.5 34q-66 48 -66 149z
" />
    <glyph glyph-name="dieresis" unicode="&#xa8;" 
d="M119 581.5q-10 11.5 -10 29.5t10.5 28.5t28 10.5t28 -10.5t10.5 -30t-11 -29.5t-28.5 -10t-27.5 11.5zM334.5 581.5q-9.5 11.5 -9.5 29.5t10 28.5t27 10.5q40 0 40 -40q0 -20 -11.5 -30t-29 -10t-27 11.5z" />
    <glyph glyph-name="copyright" unicode="&#xa9;" horiz-adv-x="833" 
d="M174 537.5q89 87.5 220 87.5q136 0 222.5 -81.5t86.5 -227.5t-89 -233.5t-220 -87.5q-135 0 -222 81t-87 227.5t89 234zM194.5 100.5q79.5 -77.5 199.5 -77.5q117 0 198 81t81 210t-80.5 206t-198.5 77q-117 0 -198 -81t-81 -209.5t79.5 -206zM495 146q-38 -24 -121 -24
q-58 0 -94 31q-51 44 -51 144t47.5 155t124.5 55q25 0 51.5 -8t39.5 -22v-79l-27 -2l-3 70q-26 11 -58 11q-62 0 -99.5 -46t-37.5 -133t39 -122q28 -24 70.5 -24t73 8t38.5 13z" />
    <glyph glyph-name="ordfeminine" unicode="&#xaa;" horiz-adv-x="319" 
d="M140 682q70 0 70 -53v-129h-24v14q-33 -15 -63 -15q-51 0 -51 44q0 29 36 39q23 6 78 10v29q0 40 -41 40q-22 0 -41 -7.5t-22 -9.5l-7 17q3 1 9.5 4.5t25 10t30.5 6.5zM94 541q0 -26 33 -26t59 12v52q-51 -7 -70 -12q-22 -8 -22 -26z" />
    <glyph glyph-name="guillemotleft" unicode="&#xab;" horiz-adv-x="694" 
d="M344 88l-269 171l269 171v-48l-204 -123l204 -123v-48zM600 88l-269 171l269 171v-48l-204 -123l204 -123v-48z" />
    <glyph glyph-name="logicalnot" unicode="&#xac;" horiz-adv-x="600" 
d="M295 265v25h205v-97h-250v72h45z" />
    <glyph glyph-name="registered" unicode="&#xae;" horiz-adv-x="599" 
d="M149 651q59 59 147 59q92 0 149.5 -54.5t57.5 -152.5t-59.5 -156t-147.5 -58q-90 0 -148 54t-58 151.5t59 156.5zM166 360q51 -48 129 -48t130.5 51t52.5 138t-51.5 136.5t-129 49.5t-130 -51t-52.5 -139.5t51 -136.5zM307 479q-12 -2 -26 -2h-26v-97h-22v233h48
q38 0 59 -12.5t21 -55.5t-33 -59l51 -106h-25zM255 595v-99h24q29 0 44.5 11t15.5 40.5t-16 38.5t-44 9h-24z" />
    <glyph glyph-name="macron" unicode="&#xaf;" 
d="M400 608v-8h-300v8h300z" />
    <glyph glyph-name="degree" unicode="&#xb0;" horiz-adv-x="378" 
d="M119 536.5q-29 23.5 -29 71.5t29 75t70 27t69.5 -23.5t28.5 -71.5t-28.5 -75t-69.5 -27t-70 23.5zM139.5 661q-19.5 -21 -19.5 -52.5t19.5 -49.5t48.5 -18t49 20.5t20 52.5t-20 50t-49 18t-48.5 -21z" />
    <glyph glyph-name="plusminus" unicode="&#xb1;" horiz-adv-x="833" 
d="M366 490v210h60v-210h220v-58h-220v-232h-60v232h-220v58h220zM646 123v-58h-500v58h500z" />
    <glyph glyph-name="twosuperior" unicode="&#xb2;" horiz-adv-x="236" 
d="M104 727q-19 0 -55 -16l-10 18q38 19 69.5 19t52 -16t20.5 -45.5t-11 -51t-28 -41.5t-37.5 -38.5l-39.5 -36.5h122l2 -21h-153l-4 21q70 68 88 89q36 42 36 72q0 47 -52 47z" />
    <glyph glyph-name="threesuperior" unicode="&#xb3;" horiz-adv-x="300" 
d="M134 519q76 0 76 53q0 45 -54 46q-15 1 -28 1v16h31q12 0 24 9q25 17 25 44q0 12 -8.5 23.5t-32 11.5t-59.5 -16l-6 18q34 19 64 19t48.5 -13.5t18.5 -39.5q0 -40 -43 -60q45 -12 45 -57q0 -75 -99 -75q-26 0 -45 6l6 19q13 -5 37 -5z" />
    <glyph glyph-name="acute" unicode="&#xb4;" horiz-adv-x="300" 
d="M240 743l-119 -148l-45 8l104 147z" />
    <glyph glyph-name="mu" unicode="&#xb5;" horiz-adv-x="517" 
d="M188 64q22 -8 70 -8t124 39v405l65 5v-505h-65v54q-74 -57 -151 -57q-51 0 -90 16q-3 2 -6 3v-266h-65v750l65 5v-356q0 -62 53 -85z" />
    <glyph glyph-name="paragraph" unicode="&#xb6;" horiz-adv-x="611" 
d="M341 700v-700h-60v359q-73 0 -119.5 44.5t-46.5 121t48 126t118 49.5h60zM458 700v-700h-10v700h10z" />
    <glyph glyph-name="periodcentered" unicode="&#xb7;" horiz-adv-x="136" 
d="M66 348q-32 0 -32 34q0 17 9 27.5t26 10.5q30 0 30 -38q0 -16 -9.5 -25t-23.5 -9z" />
    <glyph glyph-name="cedilla" unicode="&#xb8;" horiz-adv-x="260" 
d="M129 0l32 6q8 -20 8 -32q0 -35 -19 -61q-29 -39 -82 -52l-10 21q43 14 59 34t16 40.5t-7 43.5h3z" />
    <glyph glyph-name="onesuperior" unicode="&#xb9;" horiz-adv-x="275" 
d="M87 735l59 14h24v-249h-24v231l-59 -14v18z" />
    <glyph glyph-name="ordmasculine" unicode="&#xba;" horiz-adv-x="383" 
d="M116 523q-27 22 -27 72.5t27.5 77t66 26.5t65 -21.5t26.5 -72t-27 -77.5t-65.5 -27t-65.5 22zM135 656.5q-20 -20.5 -20 -58t19 -56t47 -18.5t48 20.5t20 57.5t-19.5 56t-47 19t-47.5 -20.5z" />
    <glyph glyph-name="guillemotright" unicode="&#xbb;" horiz-adv-x="694" 
d="M331 136l204 123l-204 123v48l269 -171l-269 -171v48zM75 136l204 123l-204 123v48l269 -171l-269 -171v48z" />
    <glyph glyph-name="onequarter" unicode="&#xbc;" horiz-adv-x="840" 
d="M556 750l-251 -750h-48l252 750h47zM675 0v98h-210l-12 38l222 327h48v-327h32l1 -38h-33v-98h-48zM675 136v257l-175 -257h175zM80 692l-1 33l109 24h42v-449h-42v416z" />
    <glyph glyph-name="onehalf" unicode="&#xbd;" horiz-adv-x="862" 
d="M82 691l-1 34l109 24h43v-449h-43v416zM703 402q-17 9 -53 9t-96 -30l-17 32q74 35 128 35q83 0 113 -62q12 -23 12 -61.5t-19.5 -77t-50 -74t-67.5 -69l-71 -66.5h219l4 -37h-274l-8 37l91 88t70 74q61 73 61 126.5t-42 75.5zM556 750l-251 -750h-48l252 750h47z" />
    <glyph glyph-name="threequarters" unicode="&#xbe;" horiz-adv-x="799" 
d="M672 0v98h-210l-12 39l222 327h48v-327h32l1 -39h-33v-98h-48zM125 337q139 0 139 98q0 77 -98 83q-27 1 -51 1v31h27q14 0 28 -1q52 9 79 51q12 18 12 38q0 73 -75 73q-50 0 -108 -29l-12 33q64 34 118.5 34t88.5 -24t34 -73q0 -76 -80 -110q83 -19 83 -105
q0 -72 -49 -104.5t-132 -32.5q-45 0 -84 11l11 35q29 -9 69 -9zM556 750l-251 -750h-48l252 750h47zM672 137v257l-175 -257h175z" />
    <glyph glyph-name="questiondown" unicode="&#xbf;" 
d="M440 -138q-84 -62 -172 -62h-7q-78 0 -127.5 42t-49.5 106q0 44 30 84t102 113q97 95 97 227h45q0 -148 -79 -231.5t-95 -106.5q-35 -45 -35 -86t31.5 -68.5t84.5 -27.5q80 0 152 49zM333 534q38 0 38 -40q0 -20 -10.5 -31.5t-30.5 -11.5q-35 0 -35 43q0 18 10.5 29
t27.5 11z" />
    <glyph glyph-name="Agrave" unicode="&#xc0;" horiz-adv-x="686" 
d="M482 185h-308l-64 -185h-65l253 700h61l262 -700h-73zM191 235h273l-139 389zM313 746l-118 148l60 7l104 -147z" />
    <glyph glyph-name="Aacute" unicode="&#xc1;" horiz-adv-x="686" 
d="M548 0h73l-262 700h-61l-253 -700h65l64 185h308zM325 624l139 -389h-273zM478 894l-119 -148l-45 8l104 147z" />
    <glyph glyph-name="Acircumflex" unicode="&#xc2;" horiz-adv-x="686" 
d="M482 185h-308l-64 -185h-65l253 700h61l262 -700h-73zM191 235h273l-139 389zM456 750l-134 133l-132 -133l-34 29l167 161l72.5 -71l57 -54.5t37.5 -35.5z" />
    <glyph glyph-name="Atilde" unicode="&#xc3;" horiz-adv-x="686" 
d="M482 185h-308l-64 -185h-65l253 700h61l262 -700h-73zM191 235h273l-139 389zM254 785q-53 0 -60 -36l-34 7q14 64 89 64q37 0 103 -16t86 -16t30 3q16 5 23 36l35 -7q-14 -63 -58 -69q-8 -1 -24 -1t-84 17.5t-106 17.5z" />
    <glyph glyph-name="Adieresis" unicode="&#xc4;" horiz-adv-x="686" 
d="M482 185h-308l-64 -185h-65l253 700h61l262 -700h-73zM191 235h273l-139 389zM199 761.5q-10 11.5 -10 29.5t10.5 28.5t28 10.5t28 -10.5t10.5 -30t-11 -29.5t-28.5 -10t-27.5 11.5zM414.5 761.5q-9.5 11.5 -9.5 29.5t10 28.5t27 10.5q40 0 40 -40q0 -20 -11.5 -30
t-29 -10t-27 11.5z" />
    <glyph glyph-name="Aring" unicode="&#xc5;" horiz-adv-x="686" 
d="M482 185h-308l-64 -185h-65l253 700h61l262 -700h-73zM191 235h273l-139 389zM277 767.5q-25 17.5 -25 56.5t25 62t60 23t59.5 -18t24.5 -56t-24.5 -61.5t-59.5 -23.5t-60 17.5zM301.5 865.5q-14.5 -15.5 -14.5 -39t14.5 -36t35 -12.5t35 15t14.5 38.5t-14.5 36.5t-35 13
t-35 -15.5z" />
    <glyph glyph-name="AE" unicode="&#xc6;" horiz-adv-x="681" 
d="M638 0h-289v185h-162l-66 -185h-65l263 700h304l-5 -60h-201v-263h180l-5 -60h-175v-257h226zM349 235v401l-144 -401h144z" />
    <glyph glyph-name="Ccedilla" unicode="&#xc7;" horiz-adv-x="592" 
d="M270 -118q43 14 57.5 32t16 30.5t1.5 22.5t-6 29h-1q-112 0 -180 58q-93 79 -93 263t87.5 284.5t227.5 100.5q78 0 134 -31q21 -11 33 -24v-145l-50 -3l-5 127q-51 20 -107 20q-113 0 -182.5 -83t-69.5 -243t73 -224q50 -45 139 -45q57 0 114.5 13t78.5 25l14 -49
q-47 -30 -154 -40l-22 -2q5 -15 5 -26q0 -33 -19 -59q-29 -39 -82 -52z" />
    <glyph glyph-name="Egrave" unicode="&#xc8;" horiz-adv-x="474" 
d="M404 640h-291v-263h270l-5 -60h-265v-257h316l-5 -60h-379v700h364zM218 745l-118 148l60 7l104 -147z" />
    <glyph glyph-name="Eacute" unicode="&#xc9;" horiz-adv-x="474" 
d="M409 700h-364v-700h379l5 60h-316v257h265l5 60h-270v263h291zM385 893l-119 -148l-45 8l104 147z" />
    <glyph glyph-name="Ecircumflex" unicode="&#xca;" horiz-adv-x="476" 
d="M404 640h-291v-263h270l-5 -60h-265v-257h316l-5 -60h-379v700h364zM363 749l-134 133l-132 -133l-34 29l167 161l72.5 -71l57 -54.5t37.5 -35.5z" />
    <glyph glyph-name="Edieresis" unicode="&#xcb;" horiz-adv-x="474" 
d="M404 640h-291v-263h270l-5 -60h-265v-257h316l-5 -60h-379v700h364zM98 761.5q-10 11.5 -10 29.5t10.5 28.5t28 10.5t28 -10.5t10.5 -30t-11 -29.5t-28.5 -10t-27.5 11.5zM313.5 761.5q-9.5 11.5 -9.5 29.5t10 28.5t27 10.5q40 0 40 -40q0 -20 -11.5 -30t-29 -10
t-27 11.5z" />
    <glyph glyph-name="Igrave" unicode="&#xcc;" horiz-adv-x="348" 
d="M143 745l-118 148l60 7l104 -147zM258 0h-188v48l60 7v589l-55 7v49h178v-49l-55 -7v-589l60 -7v-48z" />
    <glyph glyph-name="Iacute" unicode="&#xcd;" horiz-adv-x="348" 
d="M305 893l-119 -148l-45 8l104 147zM258 48l-60 7v589l55 7v49h-178v-49l55 -7v-589l-60 -7v-48h188v48z" />
    <glyph glyph-name="Icircumflex" unicode="&#xce;" horiz-adv-x="348" 
d="M258 0h-188v48l60 7v589l-55 7v49h178v-49l-55 -7v-589l60 -7v-48zM299 721l-134 133l-132 -133l-34 29l167 161l72.5 -71l57 -54.5t37.5 -35.5z" />
    <glyph glyph-name="Idieresis" unicode="&#xcf;" horiz-adv-x="348" 
d="M29 760.5q-10 11.5 -10 29.5t10.5 28.5t28 10.5t28 -10.5t10.5 -30t-11 -29.5t-28.5 -10t-27.5 11.5zM244.5 760.5q-9.5 11.5 -9.5 29.5t10 28.5t27 10.5q40 0 40 -40q0 -20 -11.5 -30t-29 -10t-27 11.5zM258 0h-188v48l60 7v589l-55 7v49h178v-49l-55 -7v-589l60 -7v-48
z" />
    <glyph glyph-name="Eth" unicode="&#xd0;" horiz-adv-x="660" 
d="M117 386v314h180q210 0 275 -176q23 -64 23 -168.5t-23 -176t-65 -111.5t-101.5 -54t-133.5 -14h-155v358h-37v28h37zM185 358v-303h82q52 0 99 9q161 28 161 297q0 151 -71 223q-60 61 -164 61h-107v-259h172v-28h-172z" />
    <glyph glyph-name="Ntilde" unicode="&#xd1;" horiz-adv-x="675" 
d="M529 0l-399 610l5 -610h-63v700h73l398 -610l-4 610h63v-700h-73zM273 784q-53 0 -60 -36l-34 7q14 65 89 65q37 0 103 -16.5t86 -16.5t30 3q16 5 23 36l35 -7q-14 -63 -59 -69q-7 -1 -23 -1t-84 17.5t-106 17.5z" />
    <glyph glyph-name="Ograve" unicode="&#xd2;" horiz-adv-x="720" 
d="M360 704q295 0 295 -356q0 -163 -84 -257.5t-211 -94.5q-135 0 -209 74q-86 88 -86 265t84.5 273t210.5 96zM200 118q55 -62 160 -62q99 0 163 78.5t64 225.5t-67 221q-56 63 -160 63q-98 0 -162.5 -79t-64.5 -226.5t67 -220.5zM332 745l-118 148l60 7l104 -147z" />
    <glyph glyph-name="Oacute" unicode="&#xd3;" horiz-adv-x="720" 
d="M655 348q-75 269 -295 356q-126 0 -210.5 -96t-84.5 -273t86 -265q74 -74 209 -74q127 0 211 94.5t84 257.5zM197.5 565q64.5 79 162.5 79q104 0 160 -63q67 -74 67 -221t-64 -225.5t-163 -78.5q-105 0 -160 62q-67 73 -67 220.5t64.5 226.5zM500 893l-119 -148l-45 8
l104 147z" />
    <glyph glyph-name="Ocircumflex" unicode="&#xd4;" horiz-adv-x="720" 
d="M360 704q295 0 295 -356q0 -163 -84 -257.5t-211 -94.5q-135 0 -209 74q-86 88 -86 265t84.5 273t210.5 96zM200 118q55 -62 160 -62q99 0 163 78.5t64 225.5t-67 221q-56 63 -160 63q-98 0 -162.5 -79t-64.5 -226.5t67 -220.5zM497 749l-134 133l-132 -133l-34 29
l167 161l72.5 -71l57 -54.5t37.5 -35.5z" />
    <glyph glyph-name="Otilde" unicode="&#xd5;" horiz-adv-x="720" 
d="M360 704q295 0 295 -356q0 -163 -84 -257.5t-211 -94.5q-135 0 -209 74q-86 88 -86 265t84.5 273t210.5 96zM200 118q55 -62 160 -62q99 0 163 78.5t64 225.5t-67 221q-56 63 -160 63q-98 0 -162.5 -79t-64.5 -226.5t67 -220.5zM274 796q-53 0 -60 -36l-34 7q14 65 89 65
q37 0 103 -16.5t86 -16.5t30 3q16 5 23 36l35 -7q-14 -63 -58 -69q-8 -1 -24 -1t-84 17.5t-106 17.5z" />
    <glyph glyph-name="Odieresis" unicode="&#xd6;" horiz-adv-x="720" 
d="M360 704q295 0 295 -356q0 -163 -84 -257.5t-211 -94.5q-135 0 -209 74q-86 88 -86 265t84.5 273t210.5 96zM200 118q55 -62 160 -62q99 0 163 78.5t64 225.5t-67 221q-56 63 -160 63q-98 0 -162.5 -79t-64.5 -226.5t67 -220.5zM225 761.5q-10 11.5 -10 29.5t10.5 28.5
t28 10.5t28 -10.5t10.5 -30t-11 -29.5t-28.5 -10t-27.5 11.5zM440.5 761.5q-9.5 11.5 -9.5 29.5t10 28.5t27 10.5q40 0 40 -40q0 -20 -11.5 -30t-29 -10t-27 11.5z" />
    <glyph glyph-name="multiply" unicode="&#xd7;" horiz-adv-x="632" 
d="M316 139l-160 -160l-41 41l160 160l-160 160l41 41l160 -160l160 160l41 -41l-160 -160l160 -160l-41 -41z" />
    <glyph glyph-name="Oslash" unicode="&#xd8;" horiz-adv-x="725" 
d="M136 92q-66 91 -66 255.5t84.5 260.5t210.5 96q131 0 203 -70l53 66l29 -23l-57 -71q67 -89 67 -255t-84 -260.5t-211 -94.5q-131 0 -204 69l-51 -65l-29 23zM181 148l345 432l-1 1q-56 63 -160 63q-98 0 -162.5 -79t-64.5 -210.5t43 -206.5zM204 117q57 -61 161 -61
q99 0 163 78.5t64 215.5q0 84 -14.5 129t-29.5 70l-344 -431v-1z" />
    <glyph glyph-name="Ugrave" unicode="&#xd9;" horiz-adv-x="610" 
d="M550 700v-400q0 -156 -74 -235q-64 -69 -177.5 -69t-173.5 54q-80 73 -80 250v400h68v-399q0 -145 60 -205q45 -45 130 -45q127 0 169 133q15 47 15 117v399h63zM288 746l-118 148l60 7l104 -147z" />
    <glyph glyph-name="Uacute" unicode="&#xda;" horiz-adv-x="610" 
d="M487 700v-399q0 -130 -51.5 -190t-134.5 -60t-128 45q-60 60 -60 205v399h-68v-400q0 -177 80 -250q60 -54 178 -54q171 0 227 163q20 58 20 141v400h-63zM434 894l-119 -148l-45 8l104 147z" />
    <glyph glyph-name="Ucircumflex" unicode="&#xdb;" horiz-adv-x="610" 
d="M550 700v-400q0 -156 -74 -235q-64 -69 -177.5 -69t-173.5 54q-80 73 -80 250v400h68v-399q0 -145 60 -205q45 -45 130 -45q127 0 169 133q15 47 15 117v399h63zM442 750l-134 133l-132 -133l-34 29l167 161l72.5 -71l57 -54.5t37.5 -35.5z" />
    <glyph glyph-name="Udieresis" unicode="&#xdc;" horiz-adv-x="610" 
d="M550 700v-400q0 -156 -74 -235q-64 -69 -177.5 -69t-173.5 54q-80 73 -80 250v400h68v-399q0 -145 60 -205q45 -45 130 -45q127 0 169 133q15 47 15 117v399h63zM168 761.5q-10 11.5 -10 29.5t10.5 28.5t28 10.5t28 -10.5t10.5 -30t-11 -29.5t-28.5 -10t-27.5 11.5z
M383.5 761.5q-9.5 11.5 -9.5 29.5t10 28.5t27 10.5q40 0 40 -40q0 -20 -11.5 -30t-29 -10t-27 11.5z" />
    <glyph glyph-name="Yacute" unicode="&#xdd;" horiz-adv-x="656" 
d="M118 700h-73l258 -464v-236h63v235l245 465h-70l-207 -409zM474 893l-119 -148l-45 8l104 147z" />
    <glyph glyph-name="Thorn" unicode="&#xde;" horiz-adv-x="532" 
d="M80 0v700h68v-130h77q123 0 178 -39q64 -45 64 -154q0 -182 -140 -222q-45 -13 -102 -13h-77v-142h-68zM148 515v-318h72q90 0 134.5 39.5t44.5 129t-44.5 119.5t-134.5 30h-72z" />
    <glyph glyph-name="germandbls" unicode="&#xdf;" horiz-adv-x="656" 
d="M54 500h42v114q0 59 30 91q42 45 115 45t122 -40q60 -48 60 -130q0 -53 -38 -89t-55.5 -60t-17.5 -55.5t20 -49.5t50 -29.5t65.5 -21t65.5 -24.5t50 -40.5t20 -70.5q0 -67 -48.5 -105.5t-141.5 -38.5q-45 0 -89.5 9.5t-67.5 26.5l23 53q23 -19 94 -29q22 -3 45 -3
q51 0 85.5 22t34.5 58.5t-20 54t-50 28.5t-65.5 20t-65.5 24.5t-50 40.5t-20 60.5t9 54.5t23 36l30 35t31 42q21 25 21 49t-11 44q-19 40 -62 61q-22 11 -44.5 11t-41.5 -10q-41 -24 -41 -87v-597h-65v447h-48z" />
    <glyph glyph-name="agrave" unicode="&#xe0;" horiz-adv-x="462" 
d="M51 446q109 54 191 57q65 0 100.5 -16.5t57.5 -46t22 -82.5v-358h-65v38q-137 -42 -176 -42h-3q-90 0 -123 55q-12 20 -13.5 39t-1.5 32q0 36 28 64.5t67 38.5q66 17 222 30v81q0 109 -114 109q-80 0 -174 -47zM101 114q0 -72 99 -72q79 0 157 34v143q-156 -22 -193 -34
q-63 -20 -63 -71zM230 595l-118 148l60 7l104 -147z" />
    <glyph glyph-name="aacute" unicode="&#xe1;" horiz-adv-x="462" 
d="M357 38v-38h65v358q0 91 -74 126q-40 19 -87 19q-71 0 -127 -22t-83 -35l18 -48q94 47 174 47q114 0 114 -109v-81q-154 -13 -194.5 -23t-59.5 -20q-40 -20 -57 -60q-6 -16 -6 -29.5t1.5 -32.5t13.5 -39q33 -55 140 -55q72 0 162 42zM357 76q-78 -34 -161.5 -34t-93.5 59
q-1 7 -1 20t15 35.5t72.5 34.5t168.5 28v-143zM386 743l-119 -148l-45 8l104 147z" />
    <glyph glyph-name="acircumflex" unicode="&#xe2;" horiz-adv-x="462" 
d="M51 446q109 54 191 57q65 0 100.5 -16.5t57.5 -46t22 -82.5v-358h-65v38q-137 -42 -176 -42h-3q-90 0 -123 55q-12 20 -13.5 39t-1.5 32q0 36 28 64.5t67 38.5q66 17 222 30v81q0 109 -114 109q-80 0 -174 -47zM101 114q0 -72 99 -72q79 0 157 34v143q-156 -22 -193 -34
q-63 -20 -63 -71zM382 571l-134 133l-132 -133l-34 29l167 161l72.5 -71l57 -54.5t37.5 -35.5z" />
    <glyph glyph-name="atilde" unicode="&#xe3;" horiz-adv-x="462" 
d="M51 446q109 54 191 57q65 0 100.5 -16.5t57.5 -46t22 -82.5v-358h-65v38q-137 -42 -176 -42h-3q-90 0 -123 55q-12 20 -13.5 39t-1.5 32q0 36 28 64.5t67 38.5q66 17 222 30v81q0 109 -114 109q-80 0 -174 -47zM101 114q0 -72 99 -72q79 0 157 34v143q-156 -22 -193 -34
q-63 -20 -63 -71zM150 619q-53 0 -60 -36l-34 7q14 64 89 64q37 0 103 -16t86 -16t30 3q16 5 23 36l35 -7q-14 -63 -58 -69q-8 -1 -24 -1t-84 17.5t-106 17.5z" />
    <glyph glyph-name="adieresis" unicode="&#xe4;" horiz-adv-x="462" 
d="M51 446q109 54 191 57q65 0 100.5 -16.5t57.5 -46t22 -82.5v-358h-65v38q-137 -42 -176 -42h-3q-90 0 -123 55q-12 20 -13.5 39t-1.5 32q0 36 28 64.5t67 38.5q66 17 222 30v81q0 109 -114 109q-80 0 -174 -47zM101 114q0 -72 99 -72q79 0 157 34v143q-156 -22 -193 -34
q-63 -20 -63 -71zM108 581.5q-10 11.5 -10 29.5t10.5 28.5t28 10.5t28 -10.5t10.5 -30t-11 -29.5t-28.5 -10t-27.5 11.5zM323.5 581.5q-9.5 11.5 -9.5 29.5t10 28.5t27 10.5q40 0 40 -40q0 -20 -11.5 -30t-29 -10t-27 11.5z" />
    <glyph glyph-name="aring" unicode="&#xe5;" horiz-adv-x="462" 
d="M51 446q109 54 191 57q65 0 100.5 -16.5t57.5 -46t22 -82.5v-358h-65v38q-137 -42 -176 -42h-3q-90 0 -123 55q-12 20 -13.5 39t-1.5 32q0 36 28 64.5t67 38.5q66 17 222 30v81q0 109 -114 109q-80 0 -174 -47zM101 114q0 -72 99 -72q79 0 157 34v143q-156 -22 -193 -34
q-63 -20 -63 -71zM200 602.5q-25 17.5 -25 56.5t25 62t60 23t59.5 -18t24.5 -56t-24.5 -61.5t-59.5 -23.5t-60 17.5zM224.5 700.5q-14.5 -15.5 -14.5 -39t14.5 -36t35 -12.5t35 15t14.5 38.5t-14.5 36.5t-35 13t-35 -15.5z" />
    <glyph glyph-name="ae" unicode="&#xe6;" horiz-adv-x="728" 
d="M325 230q0 -176 168 -176q71 0 129 19q16 5 22 8l15 -53q-35 -21 -127 -30q-26 -2 -49 -2q-85 0 -139 36q-85 -36 -162 -36q-94 0 -127 55q-12 20 -13.5 39t-1.5 32q0 36 28 64.5t70 39.5t122 18q4 110 61 179q-4 2 -13 7q-22 15 -65 15q-80 0 -174 -47l-18 48
q109 54 191 57q86 0 131 -34q62 35 117.5 35t93.5 -16q101 -43 101 -183q0 -20 -2 -42h-357q-1 -16 -1 -33zM502 442q-80 0 -135 -68q-24 -29 -35 -74h293q1 6 1 25.5t-13 48.5q-22 52 -73 63q-18 5 -38 5zM312 60q-17 20 -33 53t-19 92q-68 -11 -100.5 -21.5t-45.5 -30
t-13 -32.5t2 -26q9 -53 102 -53q46 0 107 18z" />
    <glyph glyph-name="ccedilla" unicode="&#xe7;" horiz-adv-x="489" 
d="M202 -118q43 14 57.5 32t16 30.5t1.5 22.5t-6 29q-145 0 -199 113q-22 46 -22 119q0 134 71.5 205.5t184.5 71.5q36 0 76.5 -9.5t62.5 -29.5v-131l-49 -7l-5 105q-41 13 -84 13q-87 0 -139.5 -56t-52.5 -158q0 -178 165 -178q66 0 136 22q14 4 17 6l16 -54
q-20 -12 -60.5 -19.5t-57 -9t-23.5 -2.5q5 -15 5 -25q0 -33 -19 -59q-29 -39 -82 -52z" />
    <glyph glyph-name="egrave" unicode="&#xe8;" horiz-adv-x="516" 
d="M120 230q0 -176 168 -176q71 0 130 19q15 5 21 8l15 -53q-35 -21 -127 -30q-26 -2 -55 -2q-84 0 -140 42q-77 57 -77 190t69.5 204.5t168.5 71.5t149 -64q38 -51 38 -135q0 -20 -2 -42h-357q-1 -8 -1 -17v-16zM297 442q-62 0 -106 -37.5t-61 -96.5h291q-5 111 -86 129
q-18 5 -38 5zM266 595l-118 148l60 7l104 -147z" />
    <glyph glyph-name="eacute" unicode="&#xe9;" horiz-adv-x="516" 
d="M478 263q2 22 2 47q0 79 -38 130q-50 64 -149 64t-168.5 -71.5t-69.5 -204.5t77 -190q56 -42 136.5 -42t153.5 20q20 5 32 12l-15 53q-30 -15 -78.5 -21t-74.5 -6q-166 0 -166 176v16q0 9 1 17h357zM130 308q17 59 61 96.5t106 37.5q20 0 38 -5q81 -18 86 -129h-291z
M447 743l-119 -148l-45 8l104 147z" />
    <glyph glyph-name="ecircumflex" unicode="&#xea;" horiz-adv-x="516" 
d="M120 230q0 -176 168 -176q71 0 130 19q15 5 21 8l15 -53q-35 -21 -127 -30q-26 -2 -55 -2q-84 0 -140 42q-77 57 -77 190t69.5 204.5t168.5 71.5t149 -64q38 -51 38 -135q0 -20 -2 -42h-357q-1 -8 -1 -17v-16zM297 442q-62 0 -106 -37.5t-61 -96.5h291q-5 111 -86 129
q-18 5 -38 5zM425 571l-134 133l-132 -133l-34 29l167 161l72.5 -71l57 -54.5t37.5 -35.5z" />
    <glyph glyph-name="edieresis" unicode="&#xeb;" horiz-adv-x="517" 
d="M120 230q0 -176 168 -176q71 0 130 19q15 5 21 8l15 -53q-35 -21 -127 -30q-26 -2 -55 -2q-84 0 -140 42q-77 57 -77 190t69.5 204.5t168.5 71.5t149 -64q38 -51 38 -135q0 -20 -2 -42h-357q-1 -8 -1 -17v-16zM297 442q-62 0 -106 -37.5t-61 -96.5h291q-5 111 -86 129
q-18 5 -38 5zM372.5 581.5q-9.5 11.5 -9.5 29.5t10 28.5t27 10.5q40 0 40 -40q0 -20 -11.5 -30t-29 -10t-27 11.5zM157 581.5q-10 11.5 -10 29.5t10.5 28.5t28 10.5t28 -10.5t10.5 -30t-11 -29.5t-28.5 -10t-27.5 11.5z" />
    <glyph glyph-name="igrave" unicode="&#xec;" horiz-adv-x="218" 
d="M146 505v-505h-65v500zM88 595l-118 148l60 7l104 -147z" />
    <glyph glyph-name="iacute" unicode="&#xed;" horiz-adv-x="218" 
d="M81 500v-500h65v505zM256 743l-119 -148l-45 8l104 147z" />
    <glyph glyph-name="icircumflex" unicode="&#xee;" horiz-adv-x="218" 
d="M146 505v-505h-65v500zM249 571l-134 133l-132 -133l-34 29l167 161l72.5 -71l57 -54.5t37.5 -35.5z" />
    <glyph glyph-name="idieresis" unicode="&#xef;" horiz-adv-x="218" 
d="M146 505v-505h-65v500zM-25 581.5q-10 11.5 -10 29.5t10.5 28.5t28 10.5t28 -10.5t10.5 -30t-11 -29.5t-28.5 -10t-27.5 11.5zM190.5 581.5q-9.5 11.5 -9.5 29.5t10 28.5t27 10.5q40 0 40 -40q0 -20 -11.5 -30t-29 -10t-27 11.5z" />
    <glyph glyph-name="eth" unicode="&#xf0;" horiz-adv-x="625" 
d="M131 750q62 -25 116 -53l64 84l25 -20l-61 -79l46.5 -28.5t75.5 -57.5q153 -130 153 -326q0 -135 -67.5 -204.5t-177.5 -69.5q-158 0 -211 132q-19 45 -19 110q0 126 68.5 196t170.5 70q55 0 92 -21l16 -10q-55 99 -175 173l-74 -97l-25 20l71 92q-47 25 -104 43z
M467 359q-60 87 -151 87q-76 0 -126 -53.5t-50 -146.5t47.5 -142.5t123 -49.5t123 51.5t51.5 150.5q0 49 -15 106z" />
    <glyph glyph-name="ntilde" unicode="&#xf1;" horiz-adv-x="482" 
d="M115 445q75 55 142 58q61 0 94 -15t54.5 -42.5t21.5 -77.5v-368h-65v351q0 37 -16 57q-32 37 -98 37q-63 -3 -133 -41v-404h-65v500l65 5v-60zM166 633q-53 0 -60 -36l-34 7q14 64 89 64q37 0 103 -16t86 -16t30 3q16 5 23 36l35 -7q-14 -63 -58 -69q-8 -1 -24 -1
t-84 17.5t-106 17.5z" />
    <glyph glyph-name="ograve" unicode="&#xf2;" horiz-adv-x="576" 
d="M70 128q-19 48 -19 112q0 123 69 193.5t173 70.5q163 0 215 -132q18 -48 18 -112q0 -123 -69 -193.5t-173 -70.5q-163 0 -214 132zM163 104.5q47 -50.5 122.5 -50.5t125.5 53.5t50 145.5t-47.5 142.5t-122.5 50.5t-125 -53.5t-50 -145.5t47 -142.5zM280 595l-118 148
l60 7l104 -147z" />
    <glyph glyph-name="oacute" unicode="&#xf3;" horiz-adv-x="576" 
d="M120 52q60 -56 164 -56t173 70.5t69 194.5t-69 187q-60 56 -164 56t-173 -70.5t-69 -194.5t69 -187zM166 392.5q50 53.5 125 53.5t122.5 -50.5t47.5 -142.5t-50 -145.5t-125.5 -53.5t-122.5 50.5t-47 142.5t50 145.5zM464 743l-119 -148l-45 8l104 147z" />
    <glyph glyph-name="ocircumflex" unicode="&#xf4;" horiz-adv-x="576" 
d="M70 128q-19 48 -19 112q0 123 69 193.5t173 70.5q163 0 215 -132q18 -48 18 -112q0 -123 -69 -193.5t-173 -70.5q-163 0 -214 132zM163 104.5q47 -50.5 122.5 -50.5t125.5 53.5t50 145.5t-47.5 142.5t-122.5 50.5t-125 -53.5t-50 -145.5t47 -142.5zM430 571l-134 133
l-132 -133l-34 29l167 161l72.5 -71l57 -54.5t37.5 -35.5z" />
    <glyph glyph-name="otilde" unicode="&#xf5;" horiz-adv-x="576" 
d="M70 128q-19 48 -19 112q0 123 69 193.5t173 70.5q163 0 215 -132q18 -48 18 -112q0 -123 -69 -193.5t-173 -70.5q-163 0 -214 132zM163 104.5q47 -50.5 122.5 -50.5t125.5 53.5t50 145.5t-47.5 142.5t-122.5 50.5t-125 -53.5t-50 -145.5t47 -142.5zM206 619
q-53 0 -60 -36l-34 7q14 64 89 64q37 0 103 -16t86 -16t30 3q16 5 23 36l35 -7q-14 -63 -58 -69q-8 -1 -24 -1t-84 17.5t-106 17.5z" />
    <glyph glyph-name="odieresis" unicode="&#xf6;" horiz-adv-x="576" 
d="M70 128q-19 48 -19 112q0 123 69 193.5t173 70.5q163 0 215 -132q18 -48 18 -112q0 -123 -69 -193.5t-173 -70.5q-163 0 -214 132zM163 104.5q47 -50.5 122.5 -50.5t125.5 53.5t50 145.5t-47.5 142.5t-122.5 50.5t-125 -53.5t-50 -145.5t47 -142.5zM154 591.5
q-10 11.5 -10 29.5t10.5 28.5t28 10.5t28 -10.5t10.5 -30t-11 -29.5t-28.5 -10t-27.5 11.5zM369.5 591.5q-9.5 11.5 -9.5 29.5t10 28.5t27 10.5q40 0 40 -40q0 -20 -11.5 -30t-29 -10t-27 11.5z" />
    <glyph glyph-name="divide" unicode="&#xf7;" horiz-adv-x="768" 
d="M377 48q-44 0 -44 47q0 22 12 35.5t35 13.5t31.5 -13.5t8.5 -35.5t-13 -34.5t-30 -12.5zM377 372q-44 0 -44 46q0 22 12 36t35 14t31.5 -14t8.5 -36t-13 -34t-30 -12zM600 290v-58h-454v58h454z" />
    <glyph glyph-name="oslash" unicode="&#xf8;" horiz-adv-x="625" 
d="M131 64q-56 66 -56 182.5t69 187t173 70.5q85 0 142 -38l34 42l33 -22l-37 -46q61 -66 61 -184.5t-69 -189t-167 -70.5t-154 41l-36 -44l-32 24zM202 89q42 -35 112.5 -35t120.5 53.5t50 141t-40 137.5zM417 415q-45 31 -91 31q-86 0 -136 -53.5t-50 -148.5
q0 -74 35 -125z" />
    <glyph glyph-name="ugrave" unicode="&#xf9;" horiz-adv-x="517" 
d="M188 64q22 -8 70 -8t124 39v405l65 5v-505h-65v54q-74 -57 -151 -57q-96 0 -139 57q-22 28 -22 78v368l65 5v-356q0 -62 53 -85zM238 595l-118 148l60 7l104 -147z" />
    <glyph glyph-name="uacute" unicode="&#xfa;" horiz-adv-x="517" 
d="M382 95q-76 -39 -124 -39t-68 8q-55 23 -55 85v356l-65 -5v-368q0 -50 22 -78q43 -57 139 -57q77 0 151 57v-54h65v505l-65 -5v-405zM405 745l-119 -148l-45 8l104 147z" />
    <glyph glyph-name="ucircumflex" unicode="&#xfb;" horiz-adv-x="517" 
d="M188 64q22 -8 70 -8t124 39v405l65 5v-505h-65v54q-74 -57 -151 -57q-96 0 -139 57q-22 28 -22 78v368l65 5v-356q0 -62 53 -85zM396 571l-134 133l-132 -133l-34 29l167 161l72.5 -71l57 -54.5t37.5 -35.5z" />
    <glyph glyph-name="udieresis" unicode="&#xfc;" horiz-adv-x="517" 
d="M188 64q22 -8 70 -8t124 39v405l65 5v-505h-65v54q-74 -57 -151 -57q-96 0 -139 57q-22 28 -22 78v368l65 5v-356q0 -62 53 -85zM126 581.5q-10 11.5 -10 29.5t10.5 28.5t28 10.5t28 -10.5t10.5 -30t-11 -29.5t-28.5 -10t-27.5 11.5zM341.5 581.5q-9.5 11.5 -9.5 29.5
t10 28.5t27 10.5q40 0 40 -40q0 -20 -11.5 -30t-29 -10t-27 11.5z" />
    <glyph glyph-name="yacute" unicode="&#xfd;" horiz-adv-x="574" 
d="M218 0h23l-110 -250h61l332 750h-70l-192 -453l-149 458l-73 -5zM422 743l-119 -148l-45 8l104 147z" />
    <glyph glyph-name="thorn" unicode="&#xfe;" horiz-adv-x="508" 
d="M312.5 20.5q-40.5 -16.5 -68 -18.5t-50.5 -2t-45 2.5t-24 2.5v-250l-65 -5v995l65 5v-256q1 0 2 1q46 14 97.5 14t89 -8.5t69.5 -32.5q75 -58 75 -192t-72 -206q-33 -33 -73.5 -49.5zM289 445q-27 6 -63.5 6t-100.5 -17v-378q28 -7 64 -7q98 0 151 58t53 163t-54 150
q-23 19 -50 25z" />
    <glyph glyph-name="ydieresis" unicode="&#xff;" horiz-adv-x="574" 
d="M40 500l73 5l149 -458l192 453h70l-332 -750h-61l110 250h-23zM150 581.5q-10 11.5 -10 29.5t10.5 28.5t28 10.5t28 -10.5t10.5 -30t-11 -29.5t-28.5 -10t-27.5 11.5zM365.5 581.5q-9.5 11.5 -9.5 29.5t10 28.5t27 10.5q40 0 40 -40q0 -20 -11.5 -30t-29 -10t-27 11.5z
" />
    <glyph glyph-name="dotlessi" unicode="&#x131;" horiz-adv-x="257" 
d="M147 500v-500h-10v500h10z" />
    <glyph glyph-name="OE" unicode="&#x152;" horiz-adv-x="714" 
d="M355 -4q-295 0 -295 352q0 164 84.5 260t210.5 96q10 0 54 -4h240l-5 -60h-201v-263h180l-5 -60h-175v-257h226l-5 -60h-257q-36 -4 -52 -4zM266.5 70q41.5 -14 69.5 -14h39v587q-10 1 -20 1q-98 0 -162.5 -79t-64.5 -226.5t66 -220.5q31 -34 72.5 -48z" />
    <glyph glyph-name="oe" unicode="&#x153;" horiz-adv-x="798" 
d="M402 230q0 -176 168 -176q71 0 130 19q15 5 21 8l15 -53q-35 -21 -127 -30q-26 -2 -49 -2q-88 0 -142 38q-59 -38 -135 -38q-163 0 -215 132q-18 48 -18 112q0 123 69 193.5t165 70.5t155 -43q100 43 130 43h4q101 0 151 -64q38 -51 38 -135q0 -20 -2 -42h-357
q-1 -8 -1 -17v-16zM375 78q-38 59 -38 161t54 175q-42 32 -89 32q-87 0 -137 -53.5t-50 -145.5t47.5 -142.5t120.5 -50.5q51 0 92 24zM579 442q-62 0 -106 -37.5t-61 -96.5h291q-5 111 -86 129q-18 5 -38 5z" />
    <glyph glyph-name="Ydieresis" unicode="&#x178;" horiz-adv-x="656" 
d="M334 291l207 409h70l-245 -465v-235h-63v236l-258 464h73zM201 761.5q-10 11.5 -10 29.5t10.5 28.5t28 10.5t28 -10.5t10.5 -30t-11 -29.5t-28.5 -10t-27.5 11.5zM416.5 761.5q-9.5 11.5 -9.5 29.5t10 28.5t27 10.5q40 0 40 -40q0 -20 -11.5 -30t-29 -10t-27 11.5z" />
    <glyph glyph-name="circumflex" unicode="&#x2c6;" horiz-adv-x="560" 
d="M416 571l-134 133l-132 -133l-34 29l167 161l72.5 -71l57 -54.5t37.5 -35.5z" />
    <glyph glyph-name="breve" unicode="&#x2d8;" 
d="M110 700q3 -27 18 -46q36 -46 114 -46q100 0 133 47q14 20 15 45h10q-2 -53 -60 -84q-32 -16 -98 -16q-85 0 -123 49q-17 22 -19 51h10z" />
    <glyph glyph-name="dotaccent" unicode="&#x2d9;" horiz-adv-x="261" 
d="M142 629q14 0 14 -14.5t-13.5 -14.5t-13.5 14q0 6 4 10.5t9 4.5z" />
    <glyph glyph-name="ring" unicode="&#x2da;" horiz-adv-x="300" 
d="M105 602.5q-25 17.5 -25 56.5t25 62t60 23t59.5 -18t24.5 -56t-24.5 -61.5t-59.5 -23.5t-60 17.5zM129.5 700.5q-14.5 -15.5 -14.5 -39t14.5 -36t35 -12.5t35 15t14.5 38.5t-14.5 36.5t-35 13t-35 -15.5z" />
    <glyph glyph-name="tilde" unicode="&#x2dc;" horiz-adv-x="588" 
d="M216 619q-53 0 -60 -36l-34 7q14 64 89 64q37 0 103 -16t86 -16t30 3q16 5 23 36l35 -7q-14 -63 -58 -69q-8 -1 -24 -1t-84 17.5t-106 17.5z" />
    <glyph glyph-name="endash" unicode="&#x2013;" horiz-adv-x="601" 
d="M534 290v-58h-454v58h454z" />
    <glyph glyph-name="emdash" unicode="&#x2014;" horiz-adv-x="701" 
d="M634 290v-58h-554v58h554z" />
    <glyph glyph-name="quoteleft" unicode="&#x2018;" horiz-adv-x="200" 
d="M122 646l1 -45l-34 -4q0 1 -4.5 32.5t-5.5 83.5l44 5q-1 -15 -1 -35v-37z" />
    <glyph glyph-name="quoteright" unicode="&#x2019;" horiz-adv-x="200" 
d="M79 598l1 45v37q0 20 -1 35l44 3q-1 -52 -5.5 -84.5t-4.5 -33.5z" />
    <glyph glyph-name="quotesinglbase" unicode="&#x201a;" horiz-adv-x="200" 
d="M79 -32l1 45v37q0 20 -1 35l44 3q-1 -52 -5.5 -84.5t-4.5 -33.5z" />
    <glyph glyph-name="quotedblleft" unicode="&#x201c;" horiz-adv-x="300" 
d="M122 646l1 -45l-34 -4q0 1 -4.5 32.5t-5.5 83.5l44 5q-1 -15 -1 -35v-37zM232 646l1 -45l-34 -4q0 1 -4.5 32.5t-5.5 83.5l44 5q-1 -15 -1 -35v-37z" />
    <glyph glyph-name="quotedblright" unicode="&#x201d;" horiz-adv-x="300" 
d="M79 598l1 45v37q0 20 -1 35l44 3q-1 -52 -5.5 -84.5t-4.5 -33.5zM189 598l1 45v37q0 20 -1 35l44 3q-1 -52 -5.5 -84.5t-4.5 -33.5z" />
    <glyph glyph-name="quotedblbase" unicode="&#x201e;" horiz-adv-x="300" 
d="M79 -32l1 45v37q0 20 -1 35l44 3q-1 -52 -5.5 -84.5t-4.5 -33.5zM189 -32l1 45v37q0 20 -1 35l44 3q-1 -52 -5.5 -84.5t-4.5 -33.5z" />
    <glyph glyph-name="bullet" unicode="&#x2022;" horiz-adv-x="463" 
d="M113 366q-10 25 -10 56q0 59 36.5 97t90.5 38q55 0 91.5 -34.5t36.5 -94.5t-37.5 -97.5t-90.5 -37.5q-87 0 -117 73z" />
    <glyph glyph-name="ellipsis" unicode="&#x2026;" horiz-adv-x="386" 
d="M36.5 2q-7.5 10 -7.5 28t9.5 29t27.5 11q33 0 33 -41q0 -17 -10.5 -27t-27.5 -10t-24.5 10zM188 -8q-33 0 -33 39t38 39q33 0 33 -40q0 -18 -10.5 -28t-27.5 -10zM312 -8q-33 0 -33 39t38 39q33 0 33 -40q0 -18 -10.5 -28t-27.5 -10z" />
    <glyph glyph-name="perthousand" unicode="&#x2030;" horiz-adv-x="982" 
d="M576 520l-396 -520h-60l396 520h60zM90 342q-10 23 -10 52q0 54 34.5 90t85.5 36q120 0 120 -120q0 -51 -36 -85.5t-84 -34.5q-85 0 -110 62zM143 458q-23 -24 -23 -62t23 -58t56.5 -20t57 23.5t23.5 62t-23.5 58.5t-57 20t-56.5 -24zM380 57q-10 23 -10 53q0 53 34.5 89
t85.5 36q120 0 120 -120q0 -51 -36 -85.5t-84 -34.5q-85 0 -110 62zM433 173q-23 -24 -23 -62t23 -58t56.5 -20t57 23.5t23.5 62t-23.5 58.5t-57 20t-56.5 -24zM666 57q-9 23 -9 53q0 53 34.5 89t85.5 36q120 0 120 -120q0 -51 -36 -85.5t-84 -34.5q-85 0 -111 62z
M720.5 173q-23.5 -24 -23.5 -62t23.5 -58t56.5 -20t56.5 23.5t23.5 62t-23.5 58.5t-56.5 20t-56.5 -24z" />
    <glyph glyph-name="guilsinglleft" unicode="&#x2039;" horiz-adv-x="436" 
d="M344 88l-269 171l269 171v-48l-204 -123l204 -123v-48z" />
    <glyph glyph-name="guilsinglright" unicode="&#x203a;" horiz-adv-x="436" 
d="M75 136l204 123l-204 123v48l269 -171l-269 -171v48z" />
    <glyph glyph-name="fraction" unicode="&#x2044;" horiz-adv-x="600" 
d="M490 749l-318 -949h-60l318 949h60z" />
    <glyph glyph-name="Euro" unicode="&#x20ac;" horiz-adv-x="642" 
d="M92 256q-1 21 -1 47t2 52h-35v28h39q16 87 69 144q74 79 195 79q78 0 135 -31q20 -11 32 -24l-26 -40q-10 11 -48.5 25t-86 14t-85.5 -14q-87 -33 -117 -153h275v-28h-279q-3 -26 -3 -52t1 -47h281v-28h-277q13 -75 55 -120q53 -58 146 -58q71 0 128 30q14 7 19 12
l23 -42q-39 -42 -142 -54q-16 -1 -32 -1q-60 0 -118 24q-90 38 -131 145q-10 29 -16 64h-42v28h39z" />
    <glyph glyph-name="trademark" unicode="&#x2122;" horiz-adv-x="428" 
d="M197 500v200h19l73 -147l74 147h19v-200h-18v166l-65 -129h-20l-64 129v-166h-18zM85 500v183h-56l1 17h130l-2 -17h-55v-183h-18z" />
    </font>
</defs>
</svg>
